<svg width="34" height="24" viewBox="0 0 34 24" fill="none" xmlns="http://www.w3.org/2000/svg">
<path d="M20.3934 14.7118H6.20013C6.33116 14.4652 6.41196 14.1885 6.41196 13.8904C6.41196 12.9103 5.61703 12.116 4.63645 12.116C3.65588 12.116 2.86093 12.9103 2.86093 13.8904C2.86093 13.9832 2.87622 14.0721 2.88932 14.1612C2.58358 13.9127 2.1992 13.7574 1.77552 13.7574C0.794945 13.7574 0 14.5519 0 15.532C0 16.5122 0.794945 17.3065 1.77552 17.3065C2.21012 17.3065 2.60323 17.1442 2.91116 16.8848C2.88058 17.0138 2.86093 17.1464 2.86093 17.2842C2.86093 18.2643 3.65588 19.0591 4.63645 19.0591C5.61703 19.0591 6.41196 18.2643 6.41196 17.2842C6.41196 16.8959 6.28312 16.5395 6.07128 16.2475H11.507L9.74898 20.1215C8.93002 21.9484 7.39254 23.1753 6.46874 23.1753C6.2569 23.1753 6.08437 23.3476 6.08437 23.5603C6.08437 23.7728 6.2569 23.9449 6.46874 23.9449H12.1404C12.3522 23.9449 12.5247 23.7728 12.5247 23.5603C12.5247 23.3478 12.3522 23.1753 12.1404 23.1753C11.721 23.1753 11.3148 22.9349 11.055 22.5319C10.6902 21.9709 10.6815 21.2072 11.0244 20.4375L12.9266 16.2475H15.4555V18.4565C15.4555 18.5769 15.5538 18.6747 15.6739 18.6747H19.1726C19.2927 18.6747 19.391 18.5769 19.391 18.4565V16.2475H20.3934C20.579 16.2475 20.7319 16.1318 20.7319 15.9891V14.9699C20.7319 14.8273 20.579 14.7118 20.3934 14.7118Z" fill="black"/>
<path d="M33.198 23.1757C32.141 23.1757 30.8437 21.9199 30.0444 20.1223L21.5708 1.10419C21.5097 0.965513 21.3721 0.875977 21.2192 0.875977H14.3705C14.1587 0.875977 13.9861 1.04828 13.9861 1.26077C13.9861 1.47305 14.1587 1.64558 14.3705 1.64558C15.2157 1.64558 16.3404 2.52483 17.1528 3.80482L12.833 13.3238H14.2547L17.9106 5.27066L24.8205 20.4394C25.1677 21.1955 25.1656 21.9123 24.8161 22.4574C24.5366 22.8937 24.0496 23.1757 23.5778 23.1757C23.3638 23.1757 23.1913 23.348 23.1913 23.5605C23.1913 23.7732 23.3638 23.9453 23.5778 23.9453H33.198C33.4098 23.9453 33.5823 23.7732 33.5823 23.5605C33.5823 23.348 33.4098 23.1757 33.198 23.1757Z" fill="black"/>
</svg>
