<svg width="24" height="24" viewBox="0 0 24 24" fill="none" xmlns="http://www.w3.org/2000/svg">
<path d="M12 0.535316C18.331 0.535316 23.4647 5.66721 23.4647 12C23.4647 18.3328 18.331 23.4647 12 23.4647C5.66899 23.4647 0.535316 18.331 0.535316 12C0.535316 5.669 5.66899 0.535316 12 0.535316ZM12 0C5.38349 0 0 5.38349 0 12C0 18.6165 5.38349 24 12 24C18.6165 24 24 18.6165 24 12C24 5.38349 18.6165 0 12 0Z" fill="black"/>
<path d="M13.2132 4.61979C13.2971 4.61979 13.3452 4.62336 13.3452 4.62336H15.1725V6.7325H13.6968C12.6904 6.7325 12.7047 7.60864 12.7047 7.60864V9.89265L15.5275 9.898L15.0297 11.6556L12.7029 11.6503V19.3802H10.2333V11.6503H8.4703V9.89265L10.2368 9.898V7.65503C10.2368 4.79823 12.619 4.61979 13.2132 4.61979ZM13.2132 4.08447C12.8777 4.08447 12.0141 4.13622 11.2272 4.6073C10.5313 5.02484 9.70153 5.89206 9.70153 7.65503V9.3609L8.47208 9.35734C8.33112 9.35734 8.19372 9.41265 8.09379 9.51436C7.99387 9.61429 7.93677 9.75168 7.93677 9.89265V11.6503C7.93677 11.9465 8.17588 12.1856 8.47208 12.1856H9.69974V19.3802C9.69974 19.6764 9.93885 19.9156 10.2351 19.9156H12.7047C13.0009 19.9156 13.24 19.6764 13.24 19.3802V12.1874L15.0297 12.1909C15.2688 12.1909 15.4794 12.0321 15.5454 11.8019L16.0432 10.0443C16.0896 9.88373 16.0557 9.71064 15.9558 9.57681C15.8541 9.44299 15.6971 9.36447 15.5293 9.36447L13.24 9.3609V7.61221C13.2507 7.2696 13.5754 7.2696 13.6968 7.2696H15.1742C15.317 7.2696 15.4526 7.2125 15.5525 7.11258C15.6525 7.01265 15.7096 6.87525 15.7096 6.73429V4.62514C15.7096 4.32893 15.4687 4.08983 15.1725 4.08983H13.3613C13.3328 4.08983 13.2828 4.08626 13.2132 4.08626V4.08447Z" fill="black"/>
</svg>
