<svg width="74" height="45" viewBox="0 0 74 45" fill="none" xmlns="http://www.w3.org/2000/svg">
<path d="M49.6416 28.6575L46.6698 28.6431C46.5863 28.6431 46.5195 28.7126 46.5195 28.7995C46.5139 28.8857 46.5863 28.9564 46.6698 28.957C46.9981 28.9592 47.3042 29.159 47.5213 29.5207C47.8496 30.0566 48.0165 31.0278 47.5045 32.1453L45.4844 36.6108L42.034 28.7121C42.0062 28.6564 41.9561 28.6208 41.8948 28.6197L37.1644 28.5975C37.0921 28.588 37.0142 28.6664 37.0142 28.7538C37.0142 28.8406 37.081 28.9108 37.1644 28.9113H37.17C37.8879 28.9158 38.9731 29.7155 39.6521 31.2376L43.7647 40.3244C43.0134 41.8799 42.0673 42.6156 40.9432 42.5099C40.2586 42.4448 38.9787 42.0307 38.5279 40.8887C38.5001 40.8242 38.4388 40.7813 38.372 40.7869C38.3053 40.7908 38.244 40.8392 38.2273 40.9071C38.0214 41.6818 37.988 42.7954 38.5223 43.6007C38.8952 44.1605 39.4684 44.4805 40.2253 44.5529C42.6239 44.7799 44.0708 41.4831 45.0225 39.3021L45.067 39.2086L49.7751 28.8818C49.7974 28.8334 49.7974 28.7761 49.7696 28.7316C49.7418 28.6859 49.6916 28.6581 49.6416 28.6575Z" fill="black"/>
<path d="M38.0769 33.7183C38.1659 33.7183 38.2382 33.6443 38.2382 33.5542C38.2382 31.5218 36.8358 28.2979 33.0738 28.2979C29.7402 28.2979 27.0244 31.1211 27.0244 34.591C27.0244 38.0615 29.7402 40.8835 33.0738 40.8835C35.311 40.8835 37.0528 39.3214 37.6761 38.2718C37.7207 38.2011 37.704 38.1093 37.6428 38.057C37.5816 38.0058 37.4925 38.0102 37.4313 38.0681C36.463 39.0498 35.5447 39.4494 34.2536 39.4494C32.3392 39.4494 30.2745 37.6908 30.2745 33.8308V33.7183H38.0769ZM33.3631 28.9952C34.4928 28.9952 35.6282 29.7693 35.6282 31.2502C35.6282 32.0672 35.1607 33.021 33.8306 33.021H30.3134C30.5026 30.4955 31.6379 28.9952 33.3631 28.9952Z" fill="black"/>
<path d="M67.6117 28.2979C63.9498 28.2979 61.7627 30.6508 61.7627 34.591C61.7627 38.5317 63.9498 40.8835 67.6117 40.8835C71.2736 40.8835 73.4607 38.5317 73.4607 34.591C73.4607 30.6508 71.2736 28.2979 67.6117 28.2979ZM67.6117 40.1868C65.8865 40.1868 65.0128 38.3041 65.0128 34.591C65.0128 30.8785 65.8865 28.9952 67.6117 28.9952C69.3369 28.9952 70.2107 30.8779 70.2107 34.591C70.2107 38.3041 69.3369 40.1868 67.6117 40.1868Z" fill="black"/>
<path d="M58.0785 28.4075C56.9989 28.4075 56.1252 28.9033 55.5074 29.4047V28.7798C55.4963 28.703 55.4351 28.6407 55.3571 28.6407H50.7325C50.649 28.6407 50.5767 28.7141 50.5767 28.8043C50.5767 28.895 50.649 28.9684 50.7325 28.9684C51.5116 28.9684 52.3575 29.8133 52.3575 31.1778V38.3035C52.3575 39.6681 51.5116 40.5129 50.7325 40.5129C50.649 40.5129 50.5767 40.5863 50.5767 40.6771C50.5767 40.7672 50.649 40.8412 50.7325 40.8412H57.138C57.2271 40.8412 57.2938 40.7672 57.2938 40.6771C57.2938 40.5863 57.2271 40.5129 57.138 40.5129C56.3589 40.5129 55.5186 39.6681 55.5186 38.3035V33.8959H55.5074V30.4404C56.1307 29.7927 56.9488 29.2194 57.7224 29.2194C58.507 29.2194 58.7853 29.8372 58.7853 30.4148C58.7853 30.9313 58.4236 31.5869 58.0118 31.5869C57.9227 31.5869 57.8559 31.6609 57.8559 31.751C57.8559 32.2118 58.6462 32.7678 59.6368 32.7678C60.6664 32.7678 61.4399 31.9642 61.4399 30.8985C61.4399 29.3619 60.1543 28.4075 58.0785 28.4075Z" fill="black"/>
<path d="M26.8857 40.5558C25.845 40.5558 25.6892 38.9118 25.6892 37.9323V32.4256C25.6892 29.9568 23.9528 28.2979 21.3706 28.2979C19.9292 28.2979 18.8328 28.9824 18.1038 29.6491V28.831C18.1038 28.7403 18.037 28.6668 17.948 28.6668H13.3233C13.2342 28.6668 13.1675 28.7403 13.1675 28.831C13.1675 28.9212 13.2342 28.9952 13.3233 28.9952C14.1024 28.9952 14.9427 29.8394 14.9427 31.2046V38.3358C14.9427 39.701 14.1024 40.5452 13.3233 40.5452C13.2342 40.5452 13.1675 40.6186 13.1675 40.7094C13.1675 40.7995 13.2342 40.873 13.3233 40.873H19.7288C19.8123 40.873 19.8846 40.7995 19.8846 40.7094C19.8846 40.6186 19.8123 40.5452 19.7288 40.5452C18.9497 40.5452 18.1038 39.701 18.1038 38.3358V30.7349C18.4767 30.2935 19.6175 29.0876 20.9476 29.0876C22.0161 29.0876 22.4558 29.6318 22.5225 31.0198V37.6318C22.5225 40.8836 25.3608 40.8835 26.8857 40.8835C26.9747 40.8835 27.0415 40.8101 27.0415 40.7194C27.0415 40.6292 26.9747 40.5558 26.8857 40.5558Z" fill="black"/>
<path d="M12.4326 40.5567C11.3864 40.5567 11.2306 38.9128 11.2306 37.9333V32.4265C11.2306 29.9962 9.17697 28.2988 6.22742 28.2988C4.09039 28.2988 1.60278 29.0301 1.60278 31.0897C1.60278 32.0854 2.27614 32.7287 3.31683 32.7287C4.10709 32.7287 4.9419 32.2885 4.9419 31.8733C4.9419 31.7832 4.86953 31.7092 4.78048 31.7092C4.55231 31.7092 4.3186 31.1871 4.3186 30.6751C4.3186 29.9088 4.63024 28.9961 6.11614 28.9961C7.46849 28.9961 8.06953 29.8053 8.06953 31.6201V33.2563C2.71582 33.3732 0 34.8301 0 37.5877C0 39.59 1.51928 40.8845 3.87335 40.8845C5.13109 40.8845 6.617 40.3569 8.40343 39.2717C9.20482 40.8845 11.2138 40.8845 12.4326 40.8845C12.5161 40.8845 12.5885 40.8111 12.5885 40.7203C12.5885 40.6302 12.5161 40.5567 12.4326 40.5567ZM5.09217 39.7731C4.20174 39.7731 3.25005 39.0068 3.25005 37.5877C3.25005 34.7689 6.95093 34.1217 8.06953 33.9909V37.6328C8.06953 37.9567 8.09738 38.2566 8.15859 38.5683C6.91199 39.3569 5.84903 39.7731 5.09217 39.7731Z" fill="black"/>
<path d="M37.0032 12.5532H25.5389C25.6391 12.3467 25.7059 12.1146 25.7059 11.8653C25.7059 11.0445 25.0659 10.3794 24.2756 10.3794C23.4798 10.3794 22.8398 11.0445 22.8398 11.8653C22.8398 11.9432 22.8509 12.0172 22.8621 12.0918C22.6172 11.8837 22.3055 11.754 21.9605 11.754C21.1702 11.754 20.5303 12.419 20.5303 13.2399C20.5303 14.0602 21.1702 14.7253 21.9605 14.7253C22.3111 14.7253 22.6283 14.5895 22.8788 14.3724C22.8565 14.4804 22.8398 14.5917 22.8398 14.7069C22.8398 15.5272 23.4798 16.1928 24.2756 16.1928C25.0659 16.1928 25.7059 15.5272 25.7059 14.7069C25.7059 14.3819 25.6057 14.083 25.4332 13.8387H29.8241L28.405 17.0821C27.7428 18.612 26.5017 19.6393 25.756 19.6393C25.5835 19.6393 25.4443 19.7835 25.4443 19.9616C25.4443 20.1396 25.5835 20.2838 25.756 20.2838H30.3361C30.5087 20.2838 30.6478 20.1391 30.6478 19.9616C30.6478 19.7835 30.5087 19.6393 30.3361 19.6393C29.9967 19.6393 29.6683 19.4379 29.4569 19.1006C29.1619 18.6304 29.1563 17.9915 29.4346 17.347L30.9706 13.8387H33.013V15.688C33.013 15.7893 33.0909 15.8712 33.1911 15.8712H36.0182C36.1128 15.8712 36.1963 15.7893 36.1963 15.688V13.8387H37.0032C37.1535 13.8387 37.2759 13.7419 37.2759 13.6222V12.7691C37.2759 12.6494 37.1535 12.5532 37.0032 12.5532Z" fill="black"/>
<path d="M47.3486 19.6392C46.4916 19.6392 45.4454 18.5879 44.7998 17.0825L37.9546 1.15995C37.9045 1.04363 37.7932 0.968506 37.6707 0.968506H32.139C31.9665 0.968506 31.8273 1.11263 31.8273 1.29072C31.8273 1.46881 31.9665 1.61297 32.139 1.61297C32.8179 1.61297 33.7306 2.34923 34.3873 3.42053L30.8979 11.391H32.0443L34.9995 4.64821L40.5814 17.348C40.8597 17.9813 40.8597 18.5812 40.5758 19.0376C40.3477 19.4032 39.9581 19.6392 39.5741 19.6392C39.4015 19.6392 39.2625 19.7833 39.2625 19.9614C39.2625 20.1395 39.4015 20.2836 39.5741 20.2836H47.3486C47.5212 20.2836 47.6603 20.1395 47.6603 19.9614C47.6603 19.7833 47.5212 19.6392 47.3486 19.6392Z" fill="black"/>
</svg>
