<svg width="24" height="24" viewBox="0 0 24 24" fill="none" xmlns="http://www.w3.org/2000/svg">
<path d="M12 0.535316C18.331 0.535316 23.4647 5.66721 23.4647 12C23.4647 18.3328 18.331 23.4647 12 23.4647C5.669 23.4647 0.535316 18.3328 0.535316 12C0.535316 5.66721 5.669 0.535316 12 0.535316ZM12 0C5.3835 0 0 5.38349 0 12C0 18.6165 5.3835 24 12 24C18.6165 24 24 18.6165 24 12C24 5.38349 18.6165 0 12 0Z" fill="black"/>
<path d="M9.54545 6C7.59068 6 6 7.59068 6 9.54545V14.4545C6 16.4093 7.59068 18 9.54545 18H14.4545C16.4093 18 18 16.4093 18 14.4545V9.54545C18 7.59068 16.4093 6 14.4545 6H9.54545ZM9.54545 6.54545H14.4545C16.1145 6.54545 17.4545 7.8855 17.4545 9.54545V14.4545C17.4545 16.1145 16.1145 17.4545 14.4545 17.4545H9.54545C7.8855 17.4545 6.54545 16.1145 6.54545 14.4545V9.54545C6.54545 7.8855 7.8855 6.54545 9.54545 6.54545ZM15.2727 8.18182C15.1281 8.18182 14.9893 8.23929 14.887 8.34158C14.7847 8.44387 14.7273 8.58261 14.7273 8.72727C14.7273 8.87194 14.7847 9.01068 14.887 9.11297C14.9893 9.21526 15.1281 9.27273 15.2727 9.27273C15.4174 9.27273 15.5561 9.21526 15.6584 9.11297C15.7607 9.01068 15.8182 8.87194 15.8182 8.72727C15.8182 8.58261 15.7607 8.44387 15.6584 8.34158C15.5561 8.23929 15.4174 8.18182 15.2727 8.18182ZM12 9C10.3464 9 9 10.3464 9 12C9 13.6536 10.3464 15 12 15C13.6536 15 15 13.6536 15 12C15 10.3464 13.6536 9 12 9ZM12 9.54545C13.3588 9.54545 14.4545 10.6412 14.4545 12C14.4545 13.3588 13.3588 14.4545 12 14.4545C10.6412 14.4545 9.54545 13.3588 9.54545 12C9.54545 10.6412 10.6412 9.54545 12 9.54545Z" fill="black"/>
</svg>
