<svg width="54" height="60" viewBox="0 0 54 60" fill="none" xmlns="http://www.w3.org/2000/svg">
<path d="M49.2944 14.2634H45.3944C44.6744 10.7124 42.8143 7.49241 40.1043 5.08641C37.3943 2.67941 33.9844 1.21637 30.3744 0.916365C26.7644 0.616365 23.1543 1.49638 20.0843 3.42338C17.0143 5.35038 14.6543 8.22038 13.3543 11.6034C10.2943 11.6414 7.34435 12.7264 4.99435 14.6784C2.63435 16.6304 1.02439 19.3314 0.414392 22.3294C-0.185608 25.3274 0.254402 28.4414 1.6744 31.1524C3.0944 33.8624 5.39442 36.0054 8.19442 37.2234V53.1354C8.19442 53.3434 8.24432 53.5484 8.34432 53.7354L11.0244 59.0964C11.1144 59.2864 11.2544 59.4514 11.4244 59.5764C11.5944 59.7024 11.7944 59.7854 12.0044 59.8194C12.0744 59.8314 12.1443 59.8384 12.2243 59.8374C12.3943 59.8374 12.5743 59.8034 12.7343 59.7354C12.8943 59.6684 13.0444 59.5694 13.1644 59.4444L18.5344 54.0834C18.6544 53.9584 18.7544 53.8114 18.8244 53.6484C18.8844 53.4854 18.9244 53.3114 18.9244 53.1354C18.9244 52.9594 18.8844 52.7854 18.8244 52.6224C18.7544 52.4604 18.6544 52.3124 18.5344 52.1874L16.7944 50.4544L18.5344 48.7214C18.6544 48.5974 18.7544 48.4494 18.8244 48.2864C18.8844 48.1244 18.9244 47.9494 18.9244 47.7734C18.9244 47.5974 18.8844 47.4234 18.8244 47.2604C18.7544 47.0984 18.6544 46.9504 18.5344 46.8264L16.7944 45.0934L18.5344 43.3594C18.6544 43.2354 18.7544 43.0874 18.8244 42.9254C18.8844 42.7624 18.9244 42.5884 18.9244 42.4124V37.2234C20.3944 36.5684 21.7344 35.6534 22.8744 34.5234C24.8144 35.3014 26.8843 35.7034 28.9743 35.7104C31.0343 35.7074 33.0844 35.3254 35.0044 34.5824V41.9544C35.0044 43.1414 35.4844 44.2794 36.3244 45.1194C37.1644 45.9594 38.2943 46.4314 39.4843 46.4334H49.2944C50.4844 46.4314 51.6144 45.9594 52.4544 45.1194C53.2944 44.2794 53.7744 43.1414 53.7744 41.9544V18.7424C53.7744 17.5554 53.2944 16.4174 52.4544 15.5774C51.6144 14.7374 50.4844 14.2654 49.2944 14.2634ZM13.5644 19.6254C15.1944 19.6254 16.2443 20.4184 16.2443 20.9654C16.2443 21.5124 15.1944 22.3064 13.5644 22.3064C11.9244 22.3064 10.8844 21.5124 10.8844 20.9654C10.8844 20.4184 11.9244 19.6254 13.5644 19.6254ZM17.1344 35.0504C16.8744 35.1424 16.6443 35.3134 16.4843 35.5394C16.3243 35.7654 16.2443 36.0354 16.2443 36.3124V41.8574L13.9544 44.1454C13.8244 44.2694 13.7344 44.4174 13.6644 44.5804C13.5944 44.7424 13.5644 44.9174 13.5644 45.0934C13.5644 45.2694 13.5944 45.4434 13.6644 45.6064C13.7344 45.7684 13.8244 45.9164 13.9544 46.0404L15.6844 47.7734L13.9544 49.5074C13.8244 49.6314 13.7344 49.7794 13.6644 49.9414C13.5944 50.1044 13.5644 50.2784 13.5644 50.4544C13.5644 50.6304 13.5944 50.8054 13.6644 50.9674C13.7344 51.1304 13.8244 51.2784 13.9544 51.4024L15.6844 53.1354L12.5843 56.2354L10.8844 52.8184V36.3124C10.8844 36.0354 10.7944 35.7654 10.6344 35.5394C10.4744 35.3134 10.2443 35.1424 9.98434 35.0504C7.68434 34.2484 5.73442 32.6824 4.44442 30.6124C3.15442 28.5434 2.61439 26.0964 2.91439 23.6774C3.21439 21.2594 4.33431 19.0164 6.08431 17.3224C7.83431 15.6284 10.1144 14.5844 12.5444 14.3664C12.3744 15.2594 12.2743 16.1654 12.2443 17.0744C9.90435 17.5054 8.19442 19.0544 8.19442 20.9654C8.19442 23.2194 10.5544 24.9864 13.5644 24.9864C16.5644 24.9864 18.9244 23.2194 18.9244 20.9654C18.9244 19.0764 17.2544 17.5444 14.9544 17.0934C14.9844 16.1994 15.0944 15.3104 15.2944 14.4394C17.6444 14.8134 19.7944 15.9604 21.4144 17.6974C23.0344 19.4344 24.0343 21.6624 24.2443 24.0284C24.4543 26.3944 23.8643 28.7634 22.5843 30.7604C21.2943 32.7564 19.3744 34.2664 17.1344 35.0504ZM24.7243 32.3524C26.1843 30.1724 26.9643 27.6094 26.9643 24.9864C26.9643 21.8864 25.8844 18.8834 23.9144 16.4884C21.9444 14.0934 19.2144 12.4524 16.1644 11.8464C17.3644 9.17442 19.3644 6.94236 21.8844 5.46336C24.4144 3.98336 27.3344 3.33137 30.2544 3.59837C33.1644 3.86437 35.9244 5.03639 38.1344 6.94939C40.3544 8.86139 41.9143 11.4194 42.6043 14.2634H39.4843C38.2943 14.2654 37.1644 14.7374 36.3244 15.5774C35.4844 16.4174 35.0044 17.5554 35.0044 18.7424V31.6454C31.7844 33.1614 28.1143 33.4134 24.7243 32.3524ZM51.0943 41.9544C51.0943 42.4304 50.9044 42.8884 50.5644 43.2254C50.2244 43.5624 49.7744 43.7524 49.2944 43.7524H39.4843C39.0143 43.7524 38.5543 43.5624 38.2143 43.2254C37.8743 42.8884 37.6844 42.4304 37.6844 41.9544V18.7424C37.6844 18.2664 37.8743 17.8084 38.2143 17.4714C38.5543 17.1344 39.0143 16.9444 39.4843 16.9444H42.9843C42.9943 17.1714 43.0544 17.3844 43.0544 17.6144V18.2844C43.0544 18.6404 43.1944 18.9814 43.4444 19.2324C43.6944 19.4834 44.0344 19.6254 44.3944 19.6254C44.7444 19.6254 45.0843 19.4834 45.3343 19.2324C45.5843 18.9814 45.7343 18.6404 45.7343 18.2844V17.6144C45.7343 17.3884 45.7044 17.1684 45.6944 16.9444H49.2944C49.7744 16.9444 50.2244 17.1344 50.5644 17.4714C50.9044 17.8084 51.0943 18.2664 51.0943 18.7424V41.9544Z" fill="black"/>
</svg>
