<svg width="19" height="19" viewBox="0 0 19 19" fill="none" xmlns="http://www.w3.org/2000/svg">
<g clip-path="url(#clip0_115_570)">
<path d="M6.15676 16.8321C12.9475 16.8321 16.6629 11.2046 16.6629 6.32599C16.6629 6.16778 16.6593 6.00607 16.6523 5.84786C17.375 5.32519 17.9988 4.67778 18.4941 3.93607C17.821 4.23554 17.1064 4.43113 16.3746 4.51614C17.1451 4.05427 17.722 3.3287 17.9984 2.47392C17.2736 2.90351 16.4808 3.20655 15.6542 3.37005C15.0973 2.77826 14.3609 2.38643 13.5589 2.25513C12.7569 2.12383 11.934 2.26038 11.2174 2.64366C10.5009 3.02695 9.93049 3.63562 9.59453 4.37558C9.25856 5.11553 9.17571 5.94555 9.35879 6.73732C7.89101 6.66366 6.45509 6.28237 5.14413 5.61817C3.83316 4.95396 2.67641 4.02167 1.74887 2.88173C1.27744 3.69452 1.13318 4.65633 1.34541 5.57166C1.55764 6.487 2.11044 7.28718 2.89145 7.80958C2.30511 7.79097 1.73162 7.6331 1.21836 7.34903V7.39474C1.21783 8.2477 1.51271 9.07453 2.05287 9.73467C2.59303 10.3948 3.34513 10.8475 4.18133 11.0158C3.63818 11.1644 3.06813 11.1861 2.51527 11.0791C2.75123 11.8127 3.21032 12.4543 3.82847 12.9143C4.44662 13.3744 5.19298 13.63 5.9634 13.6455C4.65546 14.6729 3.03977 15.2302 1.37656 15.2276C1.08161 15.2271 0.78694 15.209 0.494141 15.1734C2.18378 16.2574 4.14929 16.8331 6.15676 16.8321Z" fill="black"/>
</g>
<defs>
<clipPath id="clip0_115_570">
<rect width="18" height="18" fill="white" transform="translate(0.494141 0.519531)"/>
</clipPath>
</defs>
</svg>
