<svg width="19" height="19" viewBox="0 0 19 19" fill="none" xmlns="http://www.w3.org/2000/svg">
<g clip-path="url(#clip0_115_574)">
<path d="M10.6472 9.39031C10.6472 12.2183 8.37435 14.5109 5.57077 14.5109C2.76719 14.5109 0.494141 12.2178 0.494141 9.39031C0.494141 6.56279 2.76702 4.26953 5.57077 4.26953C8.37452 4.26953 10.6472 6.56227 10.6472 9.39031Z" fill="black"/>
<path d="M16.2163 9.39039C16.2163 12.0524 15.0798 14.2112 13.678 14.2112C12.2761 14.2112 11.1396 12.0524 11.1396 9.39039C11.1396 6.72841 12.2759 4.56958 13.6778 4.56958C15.0797 4.56958 16.2161 6.72772 16.2161 9.39039" fill="black"/>
<path d="M18.4943 9.39022C18.4943 11.7747 18.0946 13.7089 17.6015 13.7089C17.1084 13.7089 16.709 11.7752 16.709 9.39022C16.709 7.00522 17.1086 5.07153 17.6015 5.07153C18.0945 5.07153 18.4943 7.00504 18.4943 9.39022Z" fill="black"/>
</g>
<defs>
<clipPath id="clip0_115_574">
<rect width="18" height="18" fill="white" transform="translate(0.494141 0.519531)"/>
</clipPath>
</defs>
</svg>
