<svg width="19" height="19" viewBox="0 0 19 19" fill="none" xmlns="http://www.w3.org/2000/svg">
<g clip-path="url(#clip0_115_571)">
<path d="M9.49414 2.14023C11.8988 2.14023 12.1836 2.15078 13.1293 2.19297C14.0082 2.23164 14.4828 2.3793 14.7992 2.50234C15.2176 2.66406 15.5199 2.86094 15.8328 3.17383C16.1492 3.49023 16.3426 3.78906 16.5043 4.20742C16.6273 4.52383 16.775 5.00195 16.8137 5.87734C16.8559 6.82656 16.8664 7.11133 16.8664 9.5125C16.8664 11.9172 16.8559 12.202 16.8137 13.1477C16.775 14.0266 16.6273 14.5012 16.5043 14.8176C16.3426 15.2359 16.1457 15.5383 15.8328 15.8512C15.5164 16.1676 15.2176 16.3609 14.7992 16.5227C14.4828 16.6457 14.0047 16.7934 13.1293 16.832C12.1801 16.8742 11.8953 16.8848 9.49414 16.8848C7.08945 16.8848 6.80469 16.8742 5.85898 16.832C4.98008 16.7934 4.50547 16.6457 4.18906 16.5227C3.7707 16.3609 3.46836 16.1641 3.15547 15.8512C2.83906 15.5348 2.6457 15.2359 2.48398 14.8176C2.36094 14.5012 2.21328 14.023 2.17461 13.1477C2.13242 12.1984 2.12188 11.9137 2.12188 9.5125C2.12188 7.10781 2.13242 6.82305 2.17461 5.87734C2.21328 4.99844 2.36094 4.52383 2.48398 4.20742C2.6457 3.78906 2.84258 3.48672 3.15547 3.17383C3.47188 2.85742 3.7707 2.66406 4.18906 2.50234C4.50547 2.3793 4.98359 2.23164 5.85898 2.19297C6.80469 2.15078 7.08945 2.14023 9.49414 2.14023ZM9.49414 0.519531C7.05078 0.519531 6.74492 0.530078 5.78516 0.572266C4.82891 0.614453 4.17148 0.769141 3.60195 0.990625C3.00781 1.22266 2.50508 1.52852 2.00586 2.03125C1.50313 2.53047 1.19727 3.0332 0.965234 3.62383C0.74375 4.19687 0.589063 4.85078 0.546875 5.80703C0.504688 6.77031 0.494141 7.07617 0.494141 9.51953C0.494141 11.9629 0.504688 12.2687 0.546875 13.2285C0.589063 14.1848 0.74375 14.8422 0.965234 15.4117C1.19727 16.0059 1.50313 16.5086 2.00586 17.0078C2.50508 17.507 3.00781 17.8164 3.59844 18.0449C4.17148 18.2664 4.82539 18.4211 5.78164 18.4633C6.74141 18.5055 7.04727 18.516 9.49063 18.516C11.934 18.516 12.2398 18.5055 13.1996 18.4633C14.1559 18.4211 14.8133 18.2664 15.3828 18.0449C15.9734 17.8164 16.4762 17.507 16.9754 17.0078C17.4746 16.5086 17.784 16.0059 18.0125 15.4152C18.234 14.8422 18.3887 14.1883 18.4309 13.232C18.473 12.2723 18.4836 11.9664 18.4836 9.52305C18.4836 7.07969 18.473 6.77383 18.4309 5.81406C18.3887 4.85781 18.234 4.20039 18.0125 3.63086C17.791 3.0332 17.4852 2.53047 16.9824 2.03125C16.4832 1.53203 15.9805 1.22266 15.3898 0.994141C14.8168 0.772656 14.1629 0.617969 13.2066 0.575781C12.2434 0.530078 11.9375 0.519531 9.49414 0.519531Z" fill="black"/>
<path d="M9.49414 4.89648C6.9418 4.89648 4.87109 6.96719 4.87109 9.51953C4.87109 12.0719 6.9418 14.1426 9.49414 14.1426C12.0465 14.1426 14.1172 12.0719 14.1172 9.51953C14.1172 6.96719 12.0465 4.89648 9.49414 4.89648ZM9.49414 12.5184C7.83828 12.5184 6.49531 11.1754 6.49531 9.51953C6.49531 7.86367 7.83828 6.5207 9.49414 6.5207C11.15 6.5207 12.493 7.86367 12.493 9.51953C12.493 11.1754 11.15 12.5184 9.49414 12.5184Z" fill="black"/>
<path d="M15.3793 4.71357C15.3793 5.31123 14.8941 5.79287 14.3 5.79287C13.7023 5.79287 13.2207 5.30772 13.2207 4.71357C13.2207 4.11592 13.7059 3.63428 14.3 3.63428C14.8941 3.63428 15.3793 4.11943 15.3793 4.71357Z" fill="black"/>
</g>
<defs>
<clipPath id="clip0_115_571">
<rect width="18" height="18" fill="white" transform="translate(0.494141 0.519531)"/>
</clipPath>
</defs>
</svg>
