<svg width="24" height="24" viewBox="0 0 24 24" fill="none" xmlns="http://www.w3.org/2000/svg">
<path d="M12 0.535316C18.331 0.535316 23.4647 5.66721 23.4647 12C23.4647 18.3328 18.331 23.4647 12 23.4647C5.669 23.4647 0.535316 18.3328 0.535316 12C0.535316 5.66721 5.669 0.535316 12 0.535316ZM12 0C5.3835 0 0 5.38349 0 12C0 18.6165 5.3835 24 12 24C18.6165 24 24 18.6165 24 12C24 5.38349 18.6165 0 12 0Z" fill="black"/>
<path d="M7.70155 6.34171C8.52594 6.34171 9.03092 6.84848 9.04697 7.56223C9.04697 8.25993 8.54378 8.77383 7.68727 8.77383C6.87895 8.77383 6.33828 8.25993 6.33828 7.56223C6.33828 6.86454 6.87716 6.34171 7.70155 6.34171ZM14.9658 9.58215C16.5592 9.58215 17.6584 10.51 17.6584 12.7976V17.6601H15.5065V13.142C15.5065 12.141 14.8873 11.4575 14.0111 11.4575C13.342 11.4575 12.7942 11.9179 12.6175 12.3622C12.5533 12.521 12.5372 12.7441 12.5372 12.9671V17.6601H10.3817V9.85517H12.3071L12.4659 10.701C12.7835 10.1924 13.6578 9.58215 14.9622 9.58215M8.75969 9.85517V17.6601H6.60058V9.85517H8.75969ZM7.6962 5.8064C6.59702 5.8064 5.79761 6.54513 5.79761 7.56223C5.79761 8.57933 6.58987 9.30914 7.68192 9.30914C8.77396 9.30914 9.57694 8.59182 9.57694 7.56223C9.57694 7.55866 9.57694 7.55331 9.57694 7.54974C9.55196 6.52372 8.77932 5.8064 7.6962 5.8064ZM14.9604 9.04684C14.0468 9.04684 13.3188 9.30558 12.7978 9.6464C12.7157 9.4519 12.523 9.31985 12.3053 9.31985H10.3799C10.0837 9.31985 9.8446 9.55896 9.8446 9.85517V17.6601C9.8446 17.9563 10.0837 18.1954 10.3799 18.1954H12.5355C12.8317 18.1954 13.0708 17.9563 13.0708 17.6601V12.9671C13.0708 12.6959 13.0993 12.5924 13.1136 12.5621C13.2046 12.3319 13.5508 11.9929 14.0094 11.9929C14.5928 11.9929 14.9694 12.4443 14.9694 13.142V17.6601C14.9694 17.9563 15.2085 18.1954 15.5047 18.1954H17.6566C17.9528 18.1954 18.192 17.9563 18.192 17.6601V12.7976C18.192 10.4137 17.016 9.04684 14.964 9.04684H14.9604ZM8.7579 9.31985H6.5988C6.30259 9.31985 6.06348 9.55896 6.06348 9.85517V17.6601C6.06348 17.9563 6.30259 18.1954 6.5988 18.1954H8.7579C9.05411 18.1954 9.29322 17.9563 9.29322 17.6601V9.85517C9.29322 9.55896 9.05411 9.31985 8.7579 9.31985Z" fill="black"/>
</svg>
